<svg xmlns="http://www.w3.org/2000/svg" xmlns:xlink="http://www.w3.org/1999/xlink" width="500" zoomAndPan="magnify" viewBox="0 0 375 374.999991" height="500" preserveAspectRatio="xMidYMid meet" version="1.0"><defs><g/><clipPath id="bd22ef2656"><path d="M 126.253906 89.574219 L 248.503906 89.574219 L 248.503906 224.574219 L 126.253906 224.574219 Z M 126.253906 89.574219 " clip-rule="nonzero"/></clipPath></defs><g clip-path="url(#bd22ef2656)"><path fill="#ffffff" d="M 168.285156 100.648438 L 198.359375 100.648438 C 200.058594 100.648438 201.734375 100.761719 203.378906 100.976562 C 207.269531 101.480469 210.984375 102.570312 214.433594 104.148438 C 227.90625 110.308594 237.328125 123.953125 237.328125 139.691406 C 237.328125 141.976562 237.128906 144.21875 236.75 146.402344 C 236.066406 150.316406 234.792969 154.035156 233.03125 157.460938 C 229.011719 165.273438 222.4375 171.574219 214.433594 175.234375 C 210.984375 176.8125 207.269531 177.902344 203.378906 178.40625 C 201.734375 178.621094 200.058594 178.734375 198.359375 178.734375 L 157.230469 178.734375 L 157.230469 213.5 L 137.425781 213.5 L 137.425781 158.566406 L 145.167969 152.726562 L 157.230469 143.625 L 157.230469 163.800781 L 214.433594 163.800781 L 214.433594 129.566406 L 203.378906 121.222656 L 185.960938 108.082031 L 168.285156 121.421875 Z M 157.230469 129.761719 L 137.425781 144.703125 L 126.792969 152.726562 L 126.371094 153.042969 L 126.371094 224.574219 L 168.285156 224.574219 L 168.285156 189.808594 L 198.359375 189.808594 C 200.050781 189.808594 201.726562 189.722656 203.378906 189.554688 C 207.203125 189.167969 210.90625 188.347656 214.433594 187.136719 C 226.148438 183.125 235.945312 174.855469 241.953125 164.195312 C 243.8125 160.898438 245.308594 157.375 246.390625 153.675781 C 247.6875 149.234375 248.382812 144.539062 248.382812 139.691406 C 248.382812 117.753906 234.125 98.992188 214.433594 92.246094 C 210.90625 91.035156 207.203125 90.214844 203.378906 89.828125 C 201.726562 89.660156 200.050781 89.574219 198.359375 89.574219 L 157.230469 89.574219 Z M 203.378906 135.089844 L 203.378906 152.726562 L 168.285156 152.726562 L 168.285156 135.285156 L 185.960938 121.945312 Z M 203.378906 135.089844 " fill-opacity="1" fill-rule="evenodd"/></g><g fill="#ffffff" fill-opacity="1"><g transform="translate(80.313639, 262.637606)"><g><path d="M 9.53125 -14.9375 L 11.5 -14.9375 C 13.34375 -14.9375 14.71875 -15.296875 15.625 -16.015625 C 16.539062 -16.742188 17 -17.804688 17 -19.203125 C 17 -20.597656 16.613281 -21.628906 15.84375 -22.296875 C 15.082031 -22.972656 13.882812 -23.3125 12.25 -23.3125 L 9.53125 -23.3125 Z M 23.03125 -19.40625 C 23.03125 -16.375 22.082031 -14.050781 20.1875 -12.4375 C 18.289062 -10.832031 15.59375 -10.03125 12.09375 -10.03125 L 9.53125 -10.03125 L 9.53125 0 L 3.546875 0 L 3.546875 -28.203125 L 12.5625 -28.203125 C 15.976562 -28.203125 18.578125 -27.46875 20.359375 -26 C 22.140625 -24.53125 23.03125 -22.332031 23.03125 -19.40625 Z M 23.03125 -19.40625 "/></g></g></g><g fill="#ffffff" fill-opacity="1"><g transform="translate(109.039372, 262.637606)"><g><path d="M 9.53125 -15.6875 L 11.46875 -15.6875 C 13.351562 -15.6875 14.742188 -16 15.640625 -16.625 C 16.546875 -17.257812 17 -18.253906 17 -19.609375 C 17 -20.941406 16.535156 -21.890625 15.609375 -22.453125 C 14.691406 -23.023438 13.269531 -23.3125 11.34375 -23.3125 L 9.53125 -23.3125 Z M 9.53125 -10.828125 L 9.53125 0 L 3.546875 0 L 3.546875 -28.203125 L 11.765625 -28.203125 C 15.597656 -28.203125 18.429688 -27.503906 20.265625 -26.109375 C 22.109375 -24.710938 23.03125 -22.597656 23.03125 -19.765625 C 23.03125 -18.097656 22.570312 -16.617188 21.65625 -15.328125 C 20.75 -14.035156 19.460938 -13.023438 17.796875 -12.296875 C 22.035156 -5.953125 24.800781 -1.851562 26.09375 0 L 19.453125 0 L 12.71875 -10.828125 Z M 9.53125 -10.828125 "/></g></g></g><g fill="#ffffff" fill-opacity="1"><g transform="translate(139.038558, 262.637606)"><g><path d="M 19.796875 0 L 3.546875 0 L 3.546875 -28.203125 L 19.796875 -28.203125 L 19.796875 -23.3125 L 9.53125 -23.3125 L 9.53125 -17.109375 L 19.078125 -17.109375 L 19.078125 -12.21875 L 9.53125 -12.21875 L 9.53125 -4.9375 L 19.796875 -4.9375 Z M 19.796875 0 "/></g></g></g><g fill="#ffffff" fill-opacity="1"><g transform="translate(165.082322, 262.637606)"><g><path d="M 15.5 0 L 8.703125 -22.125 L 8.53125 -22.125 C 8.769531 -17.625 8.890625 -14.625 8.890625 -13.125 L 8.890625 0 L 3.546875 0 L 3.546875 -28.203125 L 11.6875 -28.203125 L 18.375 -6.640625 L 18.484375 -6.640625 L 25.5625 -28.203125 L 33.703125 -28.203125 L 33.703125 0 L 28.125 0 L 28.125 -13.359375 C 28.125 -13.984375 28.132812 -14.707031 28.15625 -15.53125 C 28.175781 -16.351562 28.265625 -18.539062 28.421875 -22.09375 L 28.25 -22.09375 L 20.96875 0 Z M 15.5 0 "/></g></g></g><g fill="#ffffff" fill-opacity="1"><g transform="translate(206.253161, 262.637606)"><g><path d="M 20.8125 0 L 18.78125 -6.71875 L 8.484375 -6.71875 L 6.4375 0 L 0 0 L 9.953125 -28.328125 L 17.265625 -28.328125 L 27.265625 0 Z M 17.34375 -11.734375 C 15.457031 -17.816406 14.394531 -21.253906 14.15625 -22.046875 C 13.914062 -22.847656 13.742188 -23.476562 13.640625 -23.9375 C 13.210938 -22.289062 12 -18.222656 10 -11.734375 Z M 17.34375 -11.734375 "/></g></g></g><g fill="#ffffff" fill-opacity="1"><g transform="translate(237.429325, 262.637606)"><g><path d="M 9.53125 -15.6875 L 11.46875 -15.6875 C 13.351562 -15.6875 14.742188 -16 15.640625 -16.625 C 16.546875 -17.257812 17 -18.253906 17 -19.609375 C 17 -20.941406 16.535156 -21.890625 15.609375 -22.453125 C 14.691406 -23.023438 13.269531 -23.3125 11.34375 -23.3125 L 9.53125 -23.3125 Z M 9.53125 -10.828125 L 9.53125 0 L 3.546875 0 L 3.546875 -28.203125 L 11.765625 -28.203125 C 15.597656 -28.203125 18.429688 -27.503906 20.265625 -26.109375 C 22.109375 -24.710938 23.03125 -22.597656 23.03125 -19.765625 C 23.03125 -18.097656 22.570312 -16.617188 21.65625 -15.328125 C 20.75 -14.035156 19.460938 -13.023438 17.796875 -12.296875 C 22.035156 -5.953125 24.800781 -1.851562 26.09375 0 L 19.453125 0 L 12.71875 -10.828125 Z M 9.53125 -10.828125 "/></g></g></g><g fill="#ffffff" fill-opacity="1"><g transform="translate(267.428511, 262.637606)"><g><path d="M 20.8125 0 L 18.78125 -6.71875 L 8.484375 -6.71875 L 6.4375 0 L 0 0 L 9.953125 -28.328125 L 17.265625 -28.328125 L 27.265625 0 Z M 17.34375 -11.734375 C 15.457031 -17.816406 14.394531 -21.253906 14.15625 -22.046875 C 13.914062 -22.847656 13.742188 -23.476562 13.640625 -23.9375 C 13.210938 -22.289062 12 -18.222656 10 -11.734375 Z M 17.34375 -11.734375 "/></g></g></g><g fill="#ffffff" fill-opacity="1"><g transform="translate(82.240986, 282.985381)"><g><path d="M 1.078125 -8.5625 L 3.75 -8.5625 C 4.957031 -8.5625 5.835938 -8.390625 6.390625 -8.046875 C 6.941406 -7.703125 7.21875 -7.15625 7.21875 -6.40625 C 7.21875 -5.882812 7.097656 -5.457031 6.859375 -5.125 C 6.617188 -4.800781 6.296875 -4.609375 5.890625 -4.546875 L 5.890625 -4.484375 C 6.429688 -4.367188 6.820312 -4.144531 7.0625 -3.8125 C 7.3125 -3.476562 7.4375 -3.035156 7.4375 -2.484375 C 7.4375 -1.703125 7.148438 -1.09375 6.578125 -0.65625 C 6.015625 -0.21875 5.25 0 4.28125 0 L 1.078125 0 Z M 2.890625 -5.171875 L 3.953125 -5.171875 C 4.441406 -5.171875 4.796875 -5.242188 5.015625 -5.390625 C 5.234375 -5.546875 5.34375 -5.800781 5.34375 -6.15625 C 5.34375 -6.488281 5.222656 -6.722656 4.984375 -6.859375 C 4.742188 -7.003906 4.363281 -7.078125 3.84375 -7.078125 L 2.890625 -7.078125 Z M 2.890625 -3.734375 L 2.890625 -1.5 L 4.078125 -1.5 C 4.578125 -1.5 4.945312 -1.59375 5.1875 -1.78125 C 5.425781 -1.976562 5.546875 -2.273438 5.546875 -2.671875 C 5.546875 -3.378906 5.035156 -3.734375 4.015625 -3.734375 Z M 2.890625 -3.734375 "/></g></g></g><g fill="#ffffff" fill-opacity="1"><g transform="translate(94.599486, 282.985381)"><g><path d="M 8.046875 -8.5625 L 8.046875 -3.03125 C 8.046875 -2.394531 7.90625 -1.835938 7.625 -1.359375 C 7.34375 -0.878906 6.929688 -0.507812 6.390625 -0.25 C 5.859375 0 5.226562 0.125 4.5 0.125 C 3.394531 0.125 2.535156 -0.15625 1.921875 -0.71875 C 1.316406 -1.289062 1.015625 -2.066406 1.015625 -3.046875 L 1.015625 -8.5625 L 2.828125 -8.5625 L 2.828125 -3.328125 C 2.828125 -2.660156 2.957031 -2.171875 3.21875 -1.859375 C 3.488281 -1.554688 3.929688 -1.40625 4.546875 -1.40625 C 5.140625 -1.40625 5.566406 -1.5625 5.828125 -1.875 C 6.097656 -2.1875 6.234375 -2.671875 6.234375 -3.328125 L 6.234375 -8.5625 Z M 8.046875 -8.5625 "/></g></g></g><g fill="#ffffff" fill-opacity="1"><g transform="translate(107.965798, 282.985381)"><g><path d="M 1.078125 0 L 1.078125 -8.5625 L 2.890625 -8.5625 L 2.890625 0 Z M 1.078125 0 "/></g></g></g><g fill="#ffffff" fill-opacity="1"><g transform="translate(116.234454, 282.985381)"><g><path d="M 1.078125 0 L 1.078125 -8.5625 L 2.890625 -8.5625 L 2.890625 -1.5 L 6.375 -1.5 L 6.375 0 Z M 1.078125 0 "/></g></g></g><g fill="#ffffff" fill-opacity="1"><g transform="translate(127.309751, 282.985381)"><g><path d="M 8.1875 -4.359375 C 8.1875 -2.953125 7.785156 -1.875 6.984375 -1.125 C 6.179688 -0.375 5.019531 0 3.5 0 L 1.078125 0 L 1.078125 -8.5625 L 3.765625 -8.5625 C 5.160156 -8.5625 6.242188 -8.191406 7.015625 -7.453125 C 7.796875 -6.722656 8.1875 -5.691406 8.1875 -4.359375 Z M 6.296875 -4.3125 C 6.296875 -6.15625 5.484375 -7.078125 3.859375 -7.078125 L 2.890625 -7.078125 L 2.890625 -1.5 L 3.671875 -1.5 C 5.421875 -1.5 6.296875 -2.4375 6.296875 -4.3125 Z M 6.296875 -4.3125 "/></g></g></g><g fill="#ffffff" fill-opacity="1"><g transform="translate(140.48856, 282.985381)"><g><path d="M 1.078125 0 L 1.078125 -8.5625 L 2.890625 -8.5625 L 2.890625 0 Z M 1.078125 0 "/></g></g></g><g fill="#ffffff" fill-opacity="1"><g transform="translate(148.757214, 282.985381)"><g><path d="M 8.671875 0 L 6.375 0 L 2.640625 -6.484375 L 2.59375 -6.484375 C 2.664062 -5.335938 2.703125 -4.519531 2.703125 -4.03125 L 2.703125 0 L 1.078125 0 L 1.078125 -8.5625 L 3.375 -8.5625 L 7.09375 -2.15625 L 7.125 -2.15625 C 7.070312 -3.269531 7.046875 -4.054688 7.046875 -4.515625 L 7.046875 -8.5625 L 8.671875 -8.5625 Z M 8.671875 0 "/></g></g></g><g fill="#ffffff" fill-opacity="1"><g transform="translate(162.80907, 282.985381)"><g><path d="M 4.328125 -4.8125 L 7.734375 -4.8125 L 7.734375 -0.375 C 7.179688 -0.1875 6.660156 -0.0546875 6.171875 0.015625 C 5.679688 0.0859375 5.1875 0.125 4.6875 0.125 C 3.394531 0.125 2.40625 -0.253906 1.71875 -1.015625 C 1.039062 -1.773438 0.703125 -2.867188 0.703125 -4.296875 C 0.703125 -5.679688 1.097656 -6.757812 1.890625 -7.53125 C 2.679688 -8.300781 3.773438 -8.6875 5.171875 -8.6875 C 6.054688 -8.6875 6.90625 -8.507812 7.71875 -8.15625 L 7.109375 -6.703125 C 6.484375 -7.015625 5.832031 -7.171875 5.15625 -7.171875 C 4.375 -7.171875 3.742188 -6.90625 3.265625 -6.375 C 2.796875 -5.851562 2.5625 -5.148438 2.5625 -4.265625 C 2.5625 -3.328125 2.75 -2.613281 3.125 -2.125 C 3.507812 -1.632812 4.066406 -1.390625 4.796875 -1.390625 C 5.179688 -1.390625 5.566406 -1.429688 5.953125 -1.515625 L 5.953125 -3.296875 L 4.328125 -3.296875 Z M 4.328125 -4.8125 "/></g></g></g><g fill="#ffffff" fill-opacity="1"><g transform="translate(175.794519, 282.985381)"><g/></g></g><g fill="#ffffff" fill-opacity="1"><g transform="translate(183.207704, 282.985381)"><g><path d="M 6.015625 0 L 1.078125 0 L 1.078125 -8.5625 L 6.015625 -8.5625 L 6.015625 -7.078125 L 2.890625 -7.078125 L 2.890625 -5.203125 L 5.796875 -5.203125 L 5.796875 -3.703125 L 2.890625 -3.703125 L 2.890625 -1.5 L 6.015625 -1.5 Z M 6.015625 0 "/></g></g></g><g fill="#ffffff" fill-opacity="1"><g transform="translate(194.224404, 282.985381)"><g><path d="M 8 0 L 5.9375 0 L 3.9375 -3.234375 L 1.953125 0 L 0 0 L 2.84375 -4.421875 L 0.1875 -8.5625 L 2.1875 -8.5625 L 4.03125 -5.484375 L 5.84375 -8.5625 L 7.796875 -8.5625 L 5.109375 -4.3125 Z M 8 0 "/></g></g></g><g fill="#ffffff" fill-opacity="1"><g transform="translate(206.524307, 282.985381)"><g><path d="M 4.71875 -7.171875 C 4.03125 -7.171875 3.5 -6.914062 3.125 -6.40625 C 2.75 -5.894531 2.5625 -5.179688 2.5625 -4.265625 C 2.5625 -2.347656 3.28125 -1.390625 4.71875 -1.390625 C 5.320312 -1.390625 6.050781 -1.539062 6.90625 -1.84375 L 6.90625 -0.328125 C 6.195312 -0.0234375 5.410156 0.125 4.546875 0.125 C 3.296875 0.125 2.34375 -0.253906 1.6875 -1.015625 C 1.03125 -1.773438 0.703125 -2.859375 0.703125 -4.265625 C 0.703125 -5.160156 0.863281 -5.941406 1.1875 -6.609375 C 1.507812 -7.285156 1.972656 -7.800781 2.578125 -8.15625 C 3.191406 -8.507812 3.90625 -8.6875 4.71875 -8.6875 C 5.550781 -8.6875 6.382812 -8.488281 7.21875 -8.09375 L 6.640625 -6.609375 C 6.316406 -6.765625 5.992188 -6.894531 5.671875 -7 C 5.347656 -7.113281 5.03125 -7.171875 4.71875 -7.171875 Z M 4.71875 -7.171875 "/></g></g></g><g fill="#ffffff" fill-opacity="1"><g transform="translate(218.466788, 282.985381)"><g><path d="M 6.015625 0 L 1.078125 0 L 1.078125 -8.5625 L 6.015625 -8.5625 L 6.015625 -7.078125 L 2.890625 -7.078125 L 2.890625 -5.203125 L 5.796875 -5.203125 L 5.796875 -3.703125 L 2.890625 -3.703125 L 2.890625 -1.5 L 6.015625 -1.5 Z M 6.015625 0 "/></g></g></g><g fill="#ffffff" fill-opacity="1"><g transform="translate(229.483488, 282.985381)"><g><path d="M 1.078125 0 L 1.078125 -8.5625 L 2.890625 -8.5625 L 2.890625 -1.5 L 6.375 -1.5 L 6.375 0 Z M 1.078125 0 "/></g></g></g><g fill="#ffffff" fill-opacity="1"><g transform="translate(240.558782, 282.985381)"><g><path d="M 1.078125 0 L 1.078125 -8.5625 L 2.890625 -8.5625 L 2.890625 -1.5 L 6.375 -1.5 L 6.375 0 Z M 1.078125 0 "/></g></g></g><g fill="#ffffff" fill-opacity="1"><g transform="translate(251.634076, 282.985381)"><g><path d="M 6.015625 0 L 1.078125 0 L 1.078125 -8.5625 L 6.015625 -8.5625 L 6.015625 -7.078125 L 2.890625 -7.078125 L 2.890625 -5.203125 L 5.796875 -5.203125 L 5.796875 -3.703125 L 2.890625 -3.703125 L 2.890625 -1.5 L 6.015625 -1.5 Z M 6.015625 0 "/></g></g></g><g fill="#ffffff" fill-opacity="1"><g transform="translate(262.650776, 282.985381)"><g><path d="M 8.671875 0 L 6.375 0 L 2.640625 -6.484375 L 2.59375 -6.484375 C 2.664062 -5.335938 2.703125 -4.519531 2.703125 -4.03125 L 2.703125 0 L 1.078125 0 L 1.078125 -8.5625 L 3.375 -8.5625 L 7.09375 -2.15625 L 7.125 -2.15625 C 7.070312 -3.269531 7.046875 -4.054688 7.046875 -4.515625 L 7.046875 -8.5625 L 8.671875 -8.5625 Z M 8.671875 0 "/></g></g></g><g fill="#ffffff" fill-opacity="1"><g transform="translate(276.702643, 282.985381)"><g><path d="M 4.71875 -7.171875 C 4.03125 -7.171875 3.5 -6.914062 3.125 -6.40625 C 2.75 -5.894531 2.5625 -5.179688 2.5625 -4.265625 C 2.5625 -2.347656 3.28125 -1.390625 4.71875 -1.390625 C 5.320312 -1.390625 6.050781 -1.539062 6.90625 -1.84375 L 6.90625 -0.328125 C 6.195312 -0.0234375 5.410156 0.125 4.546875 0.125 C 3.296875 0.125 2.34375 -0.253906 1.6875 -1.015625 C 1.03125 -1.773438 0.703125 -2.859375 0.703125 -4.265625 C 0.703125 -5.160156 0.863281 -5.941406 1.1875 -6.609375 C 1.507812 -7.285156 1.972656 -7.800781 2.578125 -8.15625 C 3.191406 -8.507812 3.90625 -8.6875 4.71875 -8.6875 C 5.550781 -8.6875 6.382812 -8.488281 7.21875 -8.09375 L 6.640625 -6.609375 C 6.316406 -6.765625 5.992188 -6.894531 5.671875 -7 C 5.347656 -7.113281 5.03125 -7.171875 4.71875 -7.171875 Z M 4.71875 -7.171875 "/></g></g></g><g fill="#ffffff" fill-opacity="1"><g transform="translate(288.645125, 282.985381)"><g><path d="M 6.015625 0 L 1.078125 0 L 1.078125 -8.5625 L 6.015625 -8.5625 L 6.015625 -7.078125 L 2.890625 -7.078125 L 2.890625 -5.203125 L 5.796875 -5.203125 L 5.796875 -3.703125 L 2.890625 -3.703125 L 2.890625 -1.5 L 6.015625 -1.5 Z M 6.015625 0 "/></g></g></g></svg>